<?xml version="1.0" standalone="no"?>
<!DOCTYPE svg PUBLIC "-//W3C//DTD SVG 1.1//EN"
"http://www.w3.org/Graphics/SVG/1.1/DTD/svg11.dtd">

<svg width="368" height="432" view_box="0 0 368 432"
xmlns="http://www.w3.org/2000/svg"
xmlns:link="http://www.w3.org/1999/xlink">\n\n<desc>Généré par Mocodo 2.3.7 le Tue, 29 May 2018 07:44:59</desc>

<rect id="frame" x="0" y="0" width="368" height="432" fill="none" stroke="none" stroke-width="0"/>

<!-- Association CONCEVOIR -->
<line x1="187" y1="187" x2="56" y2="187" stroke="#000000" stroke-width="2"/>
<text x="106" y="204.0" fill="#000000" font-family="Verdana" font-size="12">0,N</text>
<line x1="56" y1="330" x2="56" y2="187" stroke="#000000" stroke-width="2"/>
<text x="61.0" y="229" fill="#000000" font-family="Verdana" font-size="12">0,1</text>
<g id="association-CONCEVOIR">
	<path d="M 87 162 a 14 14 90 0 1 14 14 V 187 h -90 V 176 a 14 14 90 0 1 14 -14" fill="#FFFFFF" stroke="#FFFFFF" stroke-width="0"/>
	<path d="M 101 187.0 v 11 a 14 14 90 0 1 -14 14 H 25 a 14 14 90 0 1 -14 -14 V 187.0 H 90" fill="#FFFFFF" stroke="#FFFFFF" stroke-width="0"/>
	<rect x="11" y="162" width="90" height="50" fill="none" rx="14" stroke="#000000" stroke-width="2"/>
	<line x1="11" y1="187" x2="101" y2="187" stroke="#000000" stroke-width="1"/>
	<text x="18" y="179.7" fill="#000000" font-family="Verdana" font-size="12">CONCEVOIR</text>
</g>

<!-- Association S'INSCRIRE -->
<line x1="316" y1="330" x2="316" y2="187" stroke="#000000" stroke-width="2"/>
<text x="321.0" y="288" fill="#000000" font-family="Verdana" font-size="12">0,N</text>
<line x1="316" y1="60" x2="316" y2="187" stroke="#000000" stroke-width="2"/>
<text x="321.0" y="119" fill="#000000" font-family="Verdana" font-size="12">0,N</text>
<g id="association-S'INSCRIRE">
	<path d="M 345 162 a 14 14 90 0 1 14 14 V 187 h -86 V 176 a 14 14 90 0 1 14 -14" fill="#FFFFFF" stroke="#FFFFFF" stroke-width="0"/>
	<path d="M 359 187.0 v 11 a 14 14 90 0 1 -14 14 H 287 a 14 14 90 0 1 -14 -14 V 187.0 H 86" fill="#FFFFFF" stroke="#FFFFFF" stroke-width="0"/>
	<rect x="273" y="162" width="86" height="50" fill="none" rx="14" stroke="#000000" stroke-width="2"/>
	<line x1="273" y1="187" x2="359" y2="187" stroke="#000000" stroke-width="1"/>
	<text x="280" y="179.7" fill="#000000" font-family="Verdana" font-size="12">S'INSCRIRE</text>
</g>

<!-- Association CREER -->
<line x1="56" y1="60" x2="187" y2="60" stroke="#000000" stroke-width="2"/>
<text x="108" y="77.0" fill="#000000" font-family="Verdana" font-size="12">1,1</text>
<line x1="187" y1="187" x2="187" y2="60" stroke="#000000" stroke-width="2"/>
<text x="192.0" y="128" fill="#000000" font-family="Verdana" font-size="12">0,1</text>
<g id="association-CREER">
	<path d="M 201 35 a 14 14 90 0 1 14 14 V 60 h -56 V 49 a 14 14 90 0 1 14 -14" fill="#FFFFFF" stroke="#FFFFFF" stroke-width="0"/>
	<path d="M 215 60.0 v 11 a 14 14 90 0 1 -14 14 H 173 a 14 14 90 0 1 -14 -14 V 60.0 H 56" fill="#FFFFFF" stroke="#FFFFFF" stroke-width="0"/>
	<rect x="159" y="35" width="56" height="50" fill="none" rx="14" stroke="#000000" stroke-width="2"/>
	<line x1="159" y1="60" x2="215" y2="60" stroke="#000000" stroke-width="1"/>
	<text x="166" y="52.7" fill="#000000" font-family="Verdana" font-size="12">CREER</text>
</g>

<!-- Association POSSEDER -->
<line x1="56" y1="330" x2="187" y2="330" stroke="#000000" stroke-width="2"/>
<text x="101" y="347.0" fill="#000000" font-family="Verdana" font-size="12">0,N</text>
<line x1="316" y1="330" x2="187" y2="330" stroke="#000000" stroke-width="2"/>
<text x="248" y="347.0" fill="#000000" font-family="Verdana" font-size="12">0,N</text>
<g id="association-POSSEDER">
	<path d="M 214 305 a 14 14 90 0 1 14 14 V 330 h -82 V 319 a 14 14 90 0 1 14 -14" fill="#FFFFFF" stroke="#FFFFFF" stroke-width="0"/>
	<path d="M 228 330.0 v 11 a 14 14 90 0 1 -14 14 H 160 a 14 14 90 0 1 -14 -14 V 330.0 H 82" fill="#FFFFFF" stroke="#FFFFFF" stroke-width="0"/>
	<rect x="146" y="305" width="82" height="50" fill="none" rx="14" stroke="#000000" stroke-width="2"/>
	<line x1="146" y1="330" x2="228" y2="330" stroke="#000000" stroke-width="1"/>
	<text x="153" y="322.7" fill="#000000" font-family="Verdana" font-size="12">POSSEDER</text>
</g>

<!-- Entity CONTRIBUTEUR -->
<g id="entity-CONTRIBUTEUR">
	<g id="frame-CONTRIBUTEUR">
		<rect x="133" y="136" width="108" height="25" fill="#FFFFFF" stroke="#FFFFFF" stroke-width="0"/>
		<rect x="133" y="161.0" width="108" height="77" fill="#FFFFFF" stroke="#FFFFFF" stroke-width="0"/>
		<rect x="133" y="136" width="108" height="102" fill="none" stroke="#000000" stroke-width="2"/>
		<line x1="133" y1="161" x2="241" y2="161" stroke="#000000" stroke-width="1"/>
	</g>
	<text x="138" y="153.7" fill="#000000" font-family="Verdana" font-size="12">CONTRIBUTEUR</text>
	<text x="138" y="178.7" fill="#000000" font-family="Verdana" font-size="12">id_contrib</text>
	<line x1="138" y1="181" x2="199" y2="181" stroke="#000000" stroke-width="1"/>
	<text x="138" y="195.8" fill="#000000" font-family="Verdana" font-size="12">nom_contrib</text>
	<text x="138" y="212.8" fill="#000000" font-family="Verdana" font-size="12">date_pre_contr</text>
	<text x="138" y="229.8" fill="#000000" font-family="Verdana" font-size="12">page_perso</text>
</g>

<!-- Entity CATEGORIE -->
<g id="entity-CATEGORIE">
	<g id="frame-CATEGORIE">
		<rect x="275" y="296" width="82" height="25" fill="#FFFFFF" stroke="#FFFFFF" stroke-width="0"/>
		<rect x="275" y="321.0" width="82" height="43" fill="#FFFFFF" stroke="#FFFFFF" stroke-width="0"/>
		<rect x="275" y="296" width="82" height="68" fill="none" stroke="#000000" stroke-width="2"/>
		<line x1="275" y1="321" x2="357" y2="321" stroke="#000000" stroke-width="1"/>
	</g>
	<text x="280" y="313.7" fill="#000000" font-family="Verdana" font-size="12">CATEGORIE</text>
	<text x="280" y="338.8" fill="#000000" font-family="Verdana" font-size="12">id_cat</text>
	<line x1="280" y1="341" x2="318" y2="341" stroke="#000000" stroke-width="1"/>
	<text x="280" y="355.8" fill="#000000" font-family="Verdana" font-size="12">nom_cat</text>
</g>

<!-- Entity BOT -->
<g id="entity-BOT">
	<g id="frame-BOT">
		<rect x="9" y="9" width="94" height="25" fill="#FFFFFF" stroke="#FFFFFF" stroke-width="0"/>
		<rect x="9" y="34.0" width="94" height="77" fill="#FFFFFF" stroke="#FFFFFF" stroke-width="0"/>
		<rect x="9" y="9" width="94" height="102" fill="none" stroke="#000000" stroke-width="2"/>
		<line x1="9" y1="34" x2="103" y2="34" stroke="#000000" stroke-width="1"/>
	</g>
	<text x="43" y="26.7" fill="#000000" font-family="Verdana" font-size="12">BOT</text>
	<text x="14" y="51.7" fill="#000000" font-family="Verdana" font-size="12">id_bot</text>
	<line x1="14" y1="54" x2="53" y2="54" stroke="#000000" stroke-width="1"/>
	<text x="14" y="68.8" fill="#000000" font-family="Verdana" font-size="12">nom_bot</text>
	<text x="14" y="85.8" fill="#000000" font-family="Verdana" font-size="12">date_creation</text>
	<text x="14" y="102.8" fill="#000000" font-family="Verdana" font-size="12">nb_modif</text>
</g>

<!-- Entity PORTAIL -->
<g id="entity-PORTAIL">
	<g id="frame-PORTAIL">
		<rect x="281" y="18" width="70" height="25" fill="#FFFFFF" stroke="#FFFFFF" stroke-width="0"/>
		<rect x="281" y="43.0" width="70" height="59" fill="#FFFFFF" stroke="#FFFFFF" stroke-width="0"/>
		<rect x="281" y="18" width="70" height="84" fill="none" stroke="#000000" stroke-width="2"/>
		<line x1="281" y1="43" x2="351" y2="43" stroke="#000000" stroke-width="1"/>
	</g>
	<text x="289" y="35.7" fill="#000000" font-family="Verdana" font-size="12">PORTAIL</text>
	<text x="286" y="60.8" fill="#000000" font-family="Verdana" font-size="12">id_port</text>
	<line x1="286" y1="63" x2="330" y2="63" stroke="#000000" stroke-width="1"/>
	<text x="286" y="77.8" fill="#000000" font-family="Verdana" font-size="12">nom_port</text>
	<text x="286" y="94.8" fill="#000000" font-family="Verdana" font-size="12">nb_art</text>
</g>

<!-- Entity ARTICLE -->
<g id="entity-ARTICLE">
	<g id="frame-ARTICLE">
		<rect x="16" y="237" width="80" height="25" fill="#FFFFFF" stroke="#FFFFFF" stroke-width="0"/>
		<rect x="16" y="262.0" width="80" height="161" fill="#FFFFFF" stroke="#FFFFFF" stroke-width="0"/>
		<rect x="16" y="237" width="80" height="186" fill="none" stroke="#000000" stroke-width="2"/>
		<line x1="16" y1="262" x2="96" y2="262" stroke="#000000" stroke-width="1"/>
	</g>
	<text x="29" y="254.7" fill="#000000" font-family="Verdana" font-size="12">ARTICLE</text>
	<text x="21" y="279.7" fill="#000000" font-family="Verdana" font-size="12">id_art</text>
	<line x1="21" y1="282" x2="57" y2="282" stroke="#000000" stroke-width="1"/>
	<text x="21" y="296.7" fill="#000000" font-family="Verdana" font-size="12">nom_art</text>
	<text x="21" y="313.7" fill="#000000" font-family="Verdana" font-size="12">type_art</text>
	<text x="21" y="330.8" fill="#000000" font-family="Verdana" font-size="12">nb_parties</text>
	<text x="21" y="347.8" fill="#000000" font-family="Verdana" font-size="12">nb_mots</text>
	<text x="21" y="364.8" fill="#000000" font-family="Verdana" font-size="12">nb_langues</text>
	<text x="21" y="381.8" fill="#000000" font-family="Verdana" font-size="12">nb_sources</text>
	<text x="21" y="398.8" fill="#000000" font-family="Verdana" font-size="12">nb_liens</text>
	<text x="21" y="415.8" fill="#000000" font-family="Verdana" font-size="12">nb_images</text>
</g>
</svg>