<?xml version="1.0" standalone="no"?>
<!DOCTYPE svg PUBLIC "-//W3C//DTD SVG 1.1//EN"
"http://www.w3.org/Graphics/SVG/1.1/DTD/svg11.dtd">

<svg width="353" height="397" view_box="0 0 353 397"
xmlns="http://www.w3.org/2000/svg"
xmlns:link="http://www.w3.org/1999/xlink">\n\n<desc>Généré par Mocodo 2.3.7 le Tue, 29 May 2018 05:44:12</desc>

<rect id="frame" x="0" y="0" width="353" height="397" fill="none" stroke="none" stroke-width="0"/>

<!-- Association CONCEVOIR -->
<line x1="63" y1="85" x2="63" y2="211" stroke="#000000" stroke-width="2"/>
<text x="68.0" y="178" fill="#000000" font-family="Verdana" font-size="12">1,1</text>
<line x1="63" y1="329" x2="63" y2="211" stroke="#000000" stroke-width="2"/>
<text x="68.0" y="270" fill="#000000" font-family="Verdana" font-size="12">0,N</text>
<g id="association-CONCEVOIR">
	<path d="M 94 186 a 14 14 90 0 1 14 14 V 211 h -90 V 200 a 14 14 90 0 1 14 -14" fill="#FFFFFF" stroke="#FFFFFF" stroke-width="0"/>
	<path d="M 108 211.0 v 11 a 14 14 90 0 1 -14 14 H 32 a 14 14 90 0 1 -14 -14 V 211.0 H 90" fill="#FFFFFF" stroke="#FFFFFF" stroke-width="0"/>
	<rect x="18" y="186" width="90" height="50" fill="none" rx="14" stroke="#000000" stroke-width="2"/>
	<line x1="18" y1="211" x2="108" y2="211" stroke="#000000" stroke-width="1"/>
	<text x="25" y="203.7" fill="#000000" font-family="Verdana" font-size="12">CONCEVOIR</text>
</g>

<!-- Association S'INSCRIRE -->
<line x1="297" y1="85" x2="297" y2="211" stroke="#000000" stroke-width="2"/>
<text x="302.0" y="136" fill="#000000" font-family="Verdana" font-size="12">0,N</text>
<line x1="181" y1="211" x2="297" y2="211" stroke="#000000" stroke-width="2"/>
<text x="227" y="228.0" fill="#000000" font-family="Verdana" font-size="12">0,N</text>
<g id="association-S'INSCRIRE">
	<path d="M 326 186 a 14 14 90 0 1 14 14 V 211 h -86 V 200 a 14 14 90 0 1 14 -14" fill="#FFFFFF" stroke="#FFFFFF" stroke-width="0"/>
	<path d="M 340 211.0 v 11 a 14 14 90 0 1 -14 14 H 268 a 14 14 90 0 1 -14 -14 V 211.0 H 86" fill="#FFFFFF" stroke="#FFFFFF" stroke-width="0"/>
	<rect x="254" y="186" width="86" height="50" fill="none" rx="14" stroke="#000000" stroke-width="2"/>
	<line x1="254" y1="211" x2="340" y2="211" stroke="#000000" stroke-width="1"/>
	<text x="261" y="203.7" fill="#000000" font-family="Verdana" font-size="12">S'INSCRIRE</text>
</g>

<!-- Association CREER -->
<line x1="63" y1="329" x2="181" y2="329" stroke="#000000" stroke-width="2"/>
<text x="122" y="346.0" fill="#000000" font-family="Verdana" font-size="12">0,1</text>
<line x1="297" y1="329" x2="181" y2="329" stroke="#000000" stroke-width="2"/>
<text x="224" y="346.0" fill="#000000" font-family="Verdana" font-size="12">1,1</text>
<g id="association-CREER">
	<path d="M 195 304 a 14 14 90 0 1 14 14 V 329 h -56 V 318 a 14 14 90 0 1 14 -14" fill="#FFFFFF" stroke="#FFFFFF" stroke-width="0"/>
	<path d="M 209 329.0 v 11 a 14 14 90 0 1 -14 14 H 167 a 14 14 90 0 1 -14 -14 V 329.0 H 56" fill="#FFFFFF" stroke="#FFFFFF" stroke-width="0"/>
	<rect x="153" y="304" width="56" height="50" fill="none" rx="14" stroke="#000000" stroke-width="2"/>
	<line x1="153" y1="329" x2="209" y2="329" stroke="#000000" stroke-width="1"/>
	<text x="160" y="321.7" fill="#000000" font-family="Verdana" font-size="12">CREER</text>
</g>

<!-- Association POSSEDER -->
<line x1="181" y1="211" x2="181" y2="85" stroke="#000000" stroke-width="2"/>
<text x="186.0" y="169" fill="#000000" font-family="Verdana" font-size="12">0,N</text>
<line x1="63" y1="85" x2="181" y2="85" stroke="#000000" stroke-width="2"/>
<text x="109" y="102.0" fill="#000000" font-family="Verdana" font-size="12">0,N</text>
<g id="association-POSSEDER">
	<path d="M 208 60 a 14 14 90 0 1 14 14 V 85 h -82 V 74 a 14 14 90 0 1 14 -14" fill="#FFFFFF" stroke="#FFFFFF" stroke-width="0"/>
	<path d="M 222 85.0 v 11 a 14 14 90 0 1 -14 14 H 154 a 14 14 90 0 1 -14 -14 V 85.0 H 82" fill="#FFFFFF" stroke="#FFFFFF" stroke-width="0"/>
	<rect x="140" y="60" width="82" height="50" fill="none" rx="14" stroke="#000000" stroke-width="2"/>
	<line x1="140" y1="85" x2="222" y2="85" stroke="#000000" stroke-width="1"/>
	<text x="147" y="77.7" fill="#000000" font-family="Verdana" font-size="12">POSSEDER</text>
</g>

<!-- Entity CONTRIBUTEUR -->
<g id="entity-CONTRIBUTEUR">
	<g id="frame-CONTRIBUTEUR">
		<rect x="9" y="278" width="108" height="25" fill="#FFFFFF" stroke="#FFFFFF" stroke-width="0"/>
		<rect x="9" y="303.0" width="108" height="77" fill="#FFFFFF" stroke="#FFFFFF" stroke-width="0"/>
		<rect x="9" y="278" width="108" height="102" fill="none" stroke="#000000" stroke-width="2"/>
		<line x1="9" y1="303" x2="117" y2="303" stroke="#000000" stroke-width="1"/>
	</g>
	<text x="14" y="295.7" fill="#000000" font-family="Verdana" font-size="12">CONTRIBUTEUR</text>
	<text x="14" y="320.7" fill="#000000" font-family="Verdana" font-size="12">id_contrib</text>
	<line x1="14" y1="323" x2="75" y2="323" stroke="#000000" stroke-width="1"/>
	<text x="14" y="337.8" fill="#000000" font-family="Verdana" font-size="12">nom_contrib</text>
	<text x="14" y="354.8" fill="#000000" font-family="Verdana" font-size="12">date_pre_contr</text>
	<text x="14" y="371.8" fill="#000000" font-family="Verdana" font-size="12">page_perso</text>
</g>

<!-- Entity ARTICLE -->
<g id="entity-ARTICLE">
	<g id="frame-ARTICLE">
		<rect x="22" y="9" width="82" height="25" fill="#FFFFFF" stroke="#FFFFFF" stroke-width="0"/>
		<rect x="22" y="34.0" width="82" height="127" fill="#FFFFFF" stroke="#FFFFFF" stroke-width="0"/>
		<rect x="22" y="9" width="82" height="152" fill="none" stroke="#000000" stroke-width="2"/>
		<line x1="22" y1="34" x2="104" y2="34" stroke="#000000" stroke-width="1"/>
	</g>
	<text x="36" y="26.7" fill="#000000" font-family="Verdana" font-size="12">ARTICLE</text>
	<text x="27" y="51.7" fill="#000000" font-family="Verdana" font-size="12">id_article</text>
	<line x1="27" y1="54" x2="83" y2="54" stroke="#000000" stroke-width="1"/>
	<text x="27" y="68.7" fill="#000000" font-family="Verdana" font-size="12">nom_article</text>
	<text x="27" y="85.8" fill="#000000" font-family="Verdana" font-size="12">type</text>
	<text x="27" y="102.8" fill="#000000" font-family="Verdana" font-size="12">nb_parties</text>
	<text x="27" y="119.8" fill="#000000" font-family="Verdana" font-size="12">nb_mots</text>
	<text x="27" y="136.8" fill="#000000" font-family="Verdana" font-size="12">nb_langues</text>
	<text x="27" y="153.8" fill="#000000" font-family="Verdana" font-size="12">nb_source</text>
</g>

<!-- Entity BOT -->
<g id="entity-BOT">
	<g id="frame-BOT">
		<rect x="250" y="270" width="94" height="25" fill="#FFFFFF" stroke="#FFFFFF" stroke-width="0"/>
		<rect x="250" y="295.0" width="94" height="93" fill="#FFFFFF" stroke="#FFFFFF" stroke-width="0"/>
		<rect x="250" y="270" width="94" height="118" fill="none" stroke="#000000" stroke-width="2"/>
		<line x1="250" y1="295" x2="344" y2="295" stroke="#000000" stroke-width="1"/>
	</g>
	<text x="284" y="287.7" fill="#000000" font-family="Verdana" font-size="12">BOT</text>
	<text x="255" y="312.7" fill="#000000" font-family="Verdana" font-size="12">id_bot</text>
	<line x1="255" y1="315" x2="294" y2="315" stroke="#000000" stroke-width="1"/>
	<text x="255" y="329.8" fill="#000000" font-family="Verdana" font-size="12">nom_bot</text>
	<text x="255" y="346.8" fill="#000000" font-family="Verdana" font-size="12">date_creation</text>
	<text x="255" y="363.8" fill="#000000" font-family="Verdana" font-size="12">nb_modif</text>
	<text x="255" y="380.8" fill="#000000" font-family="Verdana" font-size="12">est_actif</text>
</g>

<!-- Entity CATEGORIE -->
<g id="entity-CATEGORIE">
	<g id="frame-CATEGORIE">
		<rect x="140" y="177" width="82" height="25" fill="#FFFFFF" stroke="#FFFFFF" stroke-width="0"/>
		<rect x="140" y="202.0" width="82" height="43" fill="#FFFFFF" stroke="#FFFFFF" stroke-width="0"/>
		<rect x="140" y="177" width="82" height="68" fill="none" stroke="#000000" stroke-width="2"/>
		<line x1="140" y1="202" x2="222" y2="202" stroke="#000000" stroke-width="1"/>
	</g>
	<text x="145" y="194.7" fill="#000000" font-family="Verdana" font-size="12">CATEGORIE</text>
	<text x="145" y="219.8" fill="#000000" font-family="Verdana" font-size="12">id_cat</text>
	<line x1="145" y1="222" x2="183" y2="222" stroke="#000000" stroke-width="1"/>
	<text x="145" y="236.8" fill="#000000" font-family="Verdana" font-size="12">nom_cat</text>
</g>

<!-- Entity PORTAIL -->
<g id="entity-PORTAIL">
	<g id="frame-PORTAIL">
		<rect x="258" y="51" width="78" height="25" fill="#FFFFFF" stroke="#FFFFFF" stroke-width="0"/>
		<rect x="258" y="76.0" width="78" height="43" fill="#FFFFFF" stroke="#FFFFFF" stroke-width="0"/>
		<rect x="258" y="51" width="78" height="68" fill="none" stroke="#000000" stroke-width="2"/>
		<line x1="258" y1="76" x2="336" y2="76" stroke="#000000" stroke-width="1"/>
	</g>
	<text x="270" y="68.7" fill="#000000" font-family="Verdana" font-size="12">PORTAIL</text>
	<text x="263" y="93.8" fill="#000000" font-family="Verdana" font-size="12">id_port</text>
	<line x1="263" y1="96" x2="307" y2="96" stroke="#000000" stroke-width="1"/>
	<text x="263" y="110.8" fill="#000000" font-family="Verdana" font-size="12">nb_articles</text>
</g>
</svg>